<mxfile host="app.diagrams.net" agent="Mozilla/5.0 (Windows NT 10.0; Win64; x64; rv:139.0) Gecko/20100101 Firefox/139.0" version="27.1.6">
  <diagram name="Page-1" id="jRM4KHncrqKrD71YAt92">
    <mxGraphModel dx="1425" dy="786" grid="1" gridSize="10" guides="1" tooltips="1" connect="1" arrows="1" fold="1" page="1" pageScale="1" pageWidth="850" pageHeight="1100" math="0" shadow="0">
      <root>
        <mxCell id="0" />
        <mxCell id="1" parent="0" />
        <mxCell id="Vy3BLauwifYpFiC6LE89-1" value="Tour Planner" style="strokeWidth=1;shadow=0;dashed=0;align=center;html=1;shape=mxgraph.mockup.containers.window;align=left;verticalAlign=top;spacingLeft=8;strokeColor2=#008cff;strokeColor3=#c4c4c4;fontColor=#666666;mainText=;fontSize=17;labelBackgroundColor=none;whiteSpace=wrap;" vertex="1" parent="1">
          <mxGeometry x="60" y="240" width="1050" height="600" as="geometry" />
        </mxCell>
        <mxCell id="Vy3BLauwifYpFiC6LE89-7" value="" style="swimlane;shape=mxgraph.bootstrap.anchor;strokeColor=#999999;fillColor=#ffffff;fontColor=#666666;childLayout=stackLayout;horizontal=0;startSize=0;horizontalStack=1;resizeParent=1;resizeParentMax=0;resizeLast=0;collapsible=0;marginBottom=0;whiteSpace=wrap;html=1;" vertex="1" parent="1">
          <mxGeometry x="60" y="270" width="180" height="30" as="geometry" />
        </mxCell>
        <mxCell id="Vy3BLauwifYpFiC6LE89-8" value="Import" style="text;strokeColor=inherit;align=center;verticalAlign=middle;spacingLeft=10;spacingRight=10;overflow=hidden;points=[[0,0.5],[1,0.5]];portConstraint=eastwest;rotatable=0;whiteSpace=wrap;html=1;fillColor=inherit;fontColor=inherit;fontSize=17;" vertex="1" parent="Vy3BLauwifYpFiC6LE89-7">
          <mxGeometry width="90" height="30" as="geometry" />
        </mxCell>
        <mxCell id="Vy3BLauwifYpFiC6LE89-9" value="Export" style="text;strokeColor=inherit;align=center;verticalAlign=middle;spacingLeft=10;spacingRight=10;overflow=hidden;points=[[0,0.5],[1,0.5]];portConstraint=eastwest;rotatable=0;whiteSpace=wrap;html=1;fillColor=inherit;fontColor=inherit;fontSize=17;" vertex="1" parent="Vy3BLauwifYpFiC6LE89-7">
          <mxGeometry x="90" width="90" height="30" as="geometry" />
        </mxCell>
        <mxCell id="Vy3BLauwifYpFiC6LE89-14" value="" style="verticalLabelPosition=bottom;shadow=0;dashed=0;align=center;html=1;verticalAlign=top;strokeWidth=1;shape=mxgraph.mockup.markup.line;strokeColor=#999999;" vertex="1" parent="1">
          <mxGeometry x="240" y="290" width="870" height="20" as="geometry" />
        </mxCell>
        <mxCell id="Vy3BLauwifYpFiC6LE89-15" value="" style="shape=image;html=1;verticalAlign=top;verticalLabelPosition=bottom;labelBackgroundColor=#ffffff;imageAspect=0;aspect=fixed;image=https://cdn0.iconfinder.com/data/icons/phosphor-duotone-vol-3/256/toggle-left-duotone-128.png" vertex="1" parent="1">
          <mxGeometry x="1024" y="268.5" width="35" height="35" as="geometry" />
        </mxCell>
        <mxCell id="Vy3BLauwifYpFiC6LE89-16" value="&lt;font style=&quot;font-size: 16px;&quot;&gt;Light&lt;/font&gt;" style="text;html=1;align=center;verticalAlign=middle;whiteSpace=wrap;rounded=0;" vertex="1" parent="1">
          <mxGeometry x="1050" y="270" width="60" height="30" as="geometry" />
        </mxCell>
        <mxCell id="Vy3BLauwifYpFiC6LE89-22" value="Search..." style="html=1;shadow=0;dashed=0;shape=mxgraph.bootstrap.rrect;rSize=5;strokeColor=#CED4DA;html=1;whiteSpace=wrap;fillColor=#FFFFFF;fontColor=#7D868C;align=left;spacing=15;fontSize=14;strokeWidth=1;" vertex="1" parent="1">
          <mxGeometry x="60" y="300" width="1050" height="30" as="geometry" />
        </mxCell>
        <mxCell id="Vy3BLauwifYpFiC6LE89-25" value="&lt;div align=&quot;center&quot;&gt;Clear&lt;/div&gt;" style="html=1;shadow=0;dashed=0;shape=mxgraph.bootstrap.rightButton;strokeColor=#CED4DA;gradientColor=inherit;fontColor=inherit;fillColor=#E9ECEF;rSize=5;perimeter=none;whiteSpace=wrap;resizeHeight=1;fontSize=14;align=center;spacing=15;" vertex="1" parent="Vy3BLauwifYpFiC6LE89-22">
          <mxGeometry x="1" width="80" height="30" relative="1" as="geometry">
            <mxPoint x="-80" as="offset" />
          </mxGeometry>
        </mxCell>
        <mxCell id="Vy3BLauwifYpFiC6LE89-26" value="" style="verticalLabelPosition=bottom;shadow=0;dashed=0;align=center;html=1;verticalAlign=top;strokeWidth=1;shape=mxgraph.mockup.markup.line;strokeColor=#999999;direction=north;" vertex="1" parent="1">
          <mxGeometry x="300" y="340" width="20" height="490" as="geometry" />
        </mxCell>
        <mxCell id="Vy3BLauwifYpFiC6LE89-29" value="" style="verticalLabelPosition=bottom;shadow=0;dashed=0;align=center;html=1;verticalAlign=top;strokeWidth=1;shape=mxgraph.mockup.markup.line;strokeColor=#999999;" vertex="1" parent="1">
          <mxGeometry x="320" y="620" width="780" height="20" as="geometry" />
        </mxCell>
        <mxCell id="Vy3BLauwifYpFiC6LE89-34" value="" style="swimlane;fontStyle=0;childLayout=stackLayout;horizontal=1;startSize=0;horizontalStack=0;resizeParent=1;resizeParentMax=0;resizeLast=0;collapsible=0;marginBottom=0;whiteSpace=wrap;html=1;strokeColor=none;fillColor=none;" vertex="1" parent="1">
          <mxGeometry x="60" y="345" width="250" height="150" as="geometry" />
        </mxCell>
        <mxCell id="Vy3BLauwifYpFiC6LE89-35" value="This tour is currently selected" style="text;strokeColor=none;fillColor=#0085FC;align=left;verticalAlign=middle;spacingLeft=10;spacingRight=10;overflow=hidden;points=[[0,0.5],[1,0.5]];portConstraint=eastwest;rotatable=0;whiteSpace=wrap;html=1;shape=mxgraph.bootstrap.topButton;rSize=5;fontColor=#ffffff;" vertex="1" parent="Vy3BLauwifYpFiC6LE89-34">
          <mxGeometry width="250" height="30" as="geometry" />
        </mxCell>
        <mxCell id="Vy3BLauwifYpFiC6LE89-36" value="This tour is not selected" style="text;strokeColor=#DFDFDF;fillColor=#FFFFFF;align=left;verticalAlign=middle;spacingLeft=10;spacingRight=10;overflow=hidden;points=[[0,0.5],[1,0.5]];portConstraint=eastwest;rotatable=0;whiteSpace=wrap;html=1;rSize=5;fontColor=#000000;" vertex="1" parent="Vy3BLauwifYpFiC6LE89-34">
          <mxGeometry y="30" width="250" height="30" as="geometry" />
        </mxCell>
        <mxCell id="Vy3BLauwifYpFiC6LE89-37" value="These are some other tours" style="text;strokeColor=#DFDFDF;fillColor=#FFFFFF;align=left;verticalAlign=middle;spacingLeft=10;spacingRight=10;overflow=hidden;points=[[0,0.5],[1,0.5]];portConstraint=eastwest;rotatable=0;whiteSpace=wrap;html=1;rSize=5;fontColor=#000000;" vertex="1" parent="Vy3BLauwifYpFiC6LE89-34">
          <mxGeometry y="60" width="250" height="30" as="geometry" />
        </mxCell>
        <mxCell id="Vy3BLauwifYpFiC6LE89-38" value="Easter Egg Tour" style="text;strokeColor=#DFDFDF;fillColor=#FFFFFF;align=left;verticalAlign=middle;spacingLeft=10;spacingRight=10;overflow=hidden;points=[[0,0.5],[1,0.5]];portConstraint=eastwest;rotatable=0;whiteSpace=wrap;html=1;rSize=5;fontColor=#000000;" vertex="1" parent="Vy3BLauwifYpFiC6LE89-34">
          <mxGeometry y="90" width="250" height="30" as="geometry" />
        </mxCell>
        <mxCell id="Vy3BLauwifYpFiC6LE89-39" value="I wanna try AvaloniaUI next" style="text;strokeColor=#DFDFDF;fillColor=#FFFFFF;align=left;verticalAlign=middle;spacingLeft=10;spacingRight=10;overflow=hidden;points=[[0,0.5],[1,0.5]];portConstraint=eastwest;rotatable=0;whiteSpace=wrap;html=1;shape=mxgraph.bootstrap.bottomButton;rSize=5;fontColor=#000000;" vertex="1" parent="Vy3BLauwifYpFiC6LE89-34">
          <mxGeometry y="120" width="250" height="30" as="geometry" />
        </mxCell>
        <mxCell id="Vy3BLauwifYpFiC6LE89-42" value="" style="strokeWidth=1;shadow=0;dashed=0;align=center;html=1;shape=mxgraph.mockup.containers.marginRect2;rectMarginTop=32;strokeColor=#666666;gradientColor=none;whiteSpace=wrap;" vertex="1" parent="1">
          <mxGeometry x="320" y="339" width="780" height="300" as="geometry" />
        </mxCell>
        <mxCell id="Vy3BLauwifYpFiC6LE89-43" value="&lt;div&gt;Route Information&lt;/div&gt;" style="strokeColor=inherit;fillColor=inherit;gradientColor=inherit;strokeWidth=1;shadow=0;dashed=0;align=center;html=1;shape=mxgraph.mockup.containers.rrect;rSize=0;fontSize=17;fontColor=#666666;gradientColor=none;" vertex="1" parent="Vy3BLauwifYpFiC6LE89-42">
          <mxGeometry width="150" height="25" relative="1" as="geometry">
            <mxPoint x="10" as="offset" />
          </mxGeometry>
        </mxCell>
        <mxCell id="Vy3BLauwifYpFiC6LE89-44" value="Map" style="strokeWidth=1;shadow=0;dashed=0;align=center;html=1;shape=mxgraph.mockup.containers.rrect;rSize=0;fontSize=17;fontColor=#ffffff;strokeColor=#008cff;fillColor=#008cff;" vertex="1" parent="Vy3BLauwifYpFiC6LE89-42">
          <mxGeometry width="60" height="25" relative="1" as="geometry">
            <mxPoint x="170" as="offset" />
          </mxGeometry>
        </mxCell>
        <mxCell id="Vy3BLauwifYpFiC6LE89-45" value="Misc." style="strokeColor=inherit;fillColor=inherit;gradientColor=inherit;strokeWidth=1;shadow=0;dashed=0;align=center;html=1;shape=mxgraph.mockup.containers.rrect;rSize=0;fontSize=17;fontColor=#666666;gradientColor=none;" vertex="1" parent="Vy3BLauwifYpFiC6LE89-42">
          <mxGeometry width="60" height="25" relative="1" as="geometry">
            <mxPoint x="240" as="offset" />
          </mxGeometry>
        </mxCell>
        <mxCell id="Vy3BLauwifYpFiC6LE89-46" value="" style="strokeWidth=1;shadow=0;dashed=0;align=center;html=1;shape=mxgraph.mockup.containers.topButton;rSize=5;strokeColor=#008cff;fillColor=#008cff;gradientColor=none;resizeWidth=1;movable=0;deletable=1;" vertex="1" parent="Vy3BLauwifYpFiC6LE89-42">
          <mxGeometry width="780" height="7" relative="1" as="geometry">
            <mxPoint y="25" as="offset" />
          </mxGeometry>
        </mxCell>
        <mxCell id="Vy3BLauwifYpFiC6LE89-49" value="" style="verticalLabelPosition=bottom;shadow=0;dashed=0;align=center;html=1;verticalAlign=top;strokeWidth=1;shape=mxgraph.mockup.misc.map;" vertex="1" parent="Vy3BLauwifYpFiC6LE89-42">
          <mxGeometry x="1" y="34" width="780" height="265" as="geometry" />
        </mxCell>
        <mxCell id="Vy3BLauwifYpFiC6LE89-102" value="" style="shape=table;startSize=0;container=1;collapsible=0;childLayout=tableLayout;fontSize=16;" vertex="1" parent="1">
          <mxGeometry x="328" y="650" width="380" height="142" as="geometry" />
        </mxCell>
        <mxCell id="Vy3BLauwifYpFiC6LE89-103" value="" style="shape=tableRow;horizontal=0;startSize=0;swimlaneHead=0;swimlaneBody=0;strokeColor=inherit;top=0;left=0;bottom=0;right=0;collapsible=0;dropTarget=0;fillColor=none;points=[[0,0.5],[1,0.5]];portConstraint=eastwest;fontSize=16;" vertex="1" parent="Vy3BLauwifYpFiC6LE89-102">
          <mxGeometry width="380" height="30" as="geometry" />
        </mxCell>
        <mxCell id="Vy3BLauwifYpFiC6LE89-104" value="&lt;b&gt;&lt;font style=&quot;font-size: 14px;&quot;&gt;Timestamp&lt;/font&gt;&lt;/b&gt;" style="shape=partialRectangle;html=1;whiteSpace=wrap;connectable=0;strokeColor=inherit;overflow=hidden;fillColor=none;top=0;left=0;bottom=0;right=0;pointerEvents=1;fontSize=16;" vertex="1" parent="Vy3BLauwifYpFiC6LE89-103">
          <mxGeometry width="126" height="30" as="geometry">
            <mxRectangle width="126" height="30" as="alternateBounds" />
          </mxGeometry>
        </mxCell>
        <mxCell id="Vy3BLauwifYpFiC6LE89-105" value="&lt;b&gt;&lt;font style=&quot;font-size: 14px;&quot;&gt;Difficulty&lt;/font&gt;&lt;/b&gt;" style="shape=partialRectangle;html=1;whiteSpace=wrap;connectable=0;strokeColor=inherit;overflow=hidden;fillColor=none;top=0;left=0;bottom=0;right=0;pointerEvents=1;fontSize=16;" vertex="1" parent="Vy3BLauwifYpFiC6LE89-103">
          <mxGeometry x="126" width="128" height="30" as="geometry">
            <mxRectangle width="128" height="30" as="alternateBounds" />
          </mxGeometry>
        </mxCell>
        <mxCell id="Vy3BLauwifYpFiC6LE89-106" value="&lt;b&gt;&lt;font style=&quot;font-size: 14px;&quot;&gt;Distance (km)&lt;/font&gt;&lt;/b&gt;" style="shape=partialRectangle;html=1;whiteSpace=wrap;connectable=0;strokeColor=inherit;overflow=hidden;fillColor=none;top=0;left=0;bottom=0;right=0;pointerEvents=1;fontSize=16;" vertex="1" parent="Vy3BLauwifYpFiC6LE89-103">
          <mxGeometry x="254" width="126" height="30" as="geometry">
            <mxRectangle width="126" height="30" as="alternateBounds" />
          </mxGeometry>
        </mxCell>
        <mxCell id="Vy3BLauwifYpFiC6LE89-107" value="" style="shape=tableRow;horizontal=0;startSize=0;swimlaneHead=0;swimlaneBody=0;strokeColor=inherit;top=0;left=0;bottom=0;right=0;collapsible=0;dropTarget=0;fillColor=none;points=[[0,0.5],[1,0.5]];portConstraint=eastwest;fontSize=16;" vertex="1" parent="Vy3BLauwifYpFiC6LE89-102">
          <mxGeometry y="30" width="380" height="57" as="geometry" />
        </mxCell>
        <mxCell id="Vy3BLauwifYpFiC6LE89-108" value="&lt;div&gt;27.06.2025&lt;/div&gt;&lt;div&gt;14:12&lt;/div&gt;" style="shape=partialRectangle;html=1;whiteSpace=wrap;connectable=0;strokeColor=inherit;overflow=hidden;fillColor=none;top=0;left=0;bottom=0;right=0;pointerEvents=1;fontSize=16;" vertex="1" parent="Vy3BLauwifYpFiC6LE89-107">
          <mxGeometry width="126" height="57" as="geometry">
            <mxRectangle width="126" height="57" as="alternateBounds" />
          </mxGeometry>
        </mxCell>
        <mxCell id="Vy3BLauwifYpFiC6LE89-109" value="1.5" style="shape=partialRectangle;html=1;whiteSpace=wrap;connectable=0;strokeColor=inherit;overflow=hidden;fillColor=none;top=0;left=0;bottom=0;right=0;pointerEvents=1;fontSize=16;" vertex="1" parent="Vy3BLauwifYpFiC6LE89-107">
          <mxGeometry x="126" width="128" height="57" as="geometry">
            <mxRectangle width="128" height="57" as="alternateBounds" />
          </mxGeometry>
        </mxCell>
        <mxCell id="Vy3BLauwifYpFiC6LE89-110" value="23.4" style="shape=partialRectangle;html=1;whiteSpace=wrap;connectable=0;strokeColor=inherit;overflow=hidden;fillColor=none;top=0;left=0;bottom=0;right=0;pointerEvents=1;fontSize=16;" vertex="1" parent="Vy3BLauwifYpFiC6LE89-107">
          <mxGeometry x="254" width="126" height="57" as="geometry">
            <mxRectangle width="126" height="57" as="alternateBounds" />
          </mxGeometry>
        </mxCell>
        <mxCell id="Vy3BLauwifYpFiC6LE89-111" value="" style="shape=tableRow;horizontal=0;startSize=0;swimlaneHead=0;swimlaneBody=0;strokeColor=inherit;top=0;left=0;bottom=0;right=0;collapsible=0;dropTarget=0;fillColor=none;points=[[0,0.5],[1,0.5]];portConstraint=eastwest;fontSize=16;" vertex="1" parent="Vy3BLauwifYpFiC6LE89-102">
          <mxGeometry y="87" width="380" height="55" as="geometry" />
        </mxCell>
        <mxCell id="Vy3BLauwifYpFiC6LE89-112" value="&lt;div&gt;28.06.2025&lt;/div&gt;&lt;div&gt;11:28&lt;/div&gt;" style="shape=partialRectangle;html=1;whiteSpace=wrap;connectable=0;strokeColor=inherit;overflow=hidden;fillColor=none;top=0;left=0;bottom=0;right=0;pointerEvents=1;fontSize=16;" vertex="1" parent="Vy3BLauwifYpFiC6LE89-111">
          <mxGeometry width="126" height="55" as="geometry">
            <mxRectangle width="126" height="55" as="alternateBounds" />
          </mxGeometry>
        </mxCell>
        <mxCell id="Vy3BLauwifYpFiC6LE89-113" value="2.5" style="shape=partialRectangle;html=1;whiteSpace=wrap;connectable=0;strokeColor=inherit;overflow=hidden;fillColor=none;top=0;left=0;bottom=0;right=0;pointerEvents=1;fontSize=16;" vertex="1" parent="Vy3BLauwifYpFiC6LE89-111">
          <mxGeometry x="126" width="128" height="55" as="geometry">
            <mxRectangle width="128" height="55" as="alternateBounds" />
          </mxGeometry>
        </mxCell>
        <mxCell id="Vy3BLauwifYpFiC6LE89-114" value="22.9" style="shape=partialRectangle;html=1;whiteSpace=wrap;connectable=0;strokeColor=inherit;overflow=hidden;fillColor=none;top=0;left=0;bottom=0;right=0;pointerEvents=1;fontSize=16;" vertex="1" parent="Vy3BLauwifYpFiC6LE89-111">
          <mxGeometry x="254" width="126" height="55" as="geometry">
            <mxRectangle width="126" height="55" as="alternateBounds" />
          </mxGeometry>
        </mxCell>
        <mxCell id="Vy3BLauwifYpFiC6LE89-155" value="" style="shape=table;startSize=0;container=1;collapsible=0;childLayout=tableLayout;fontSize=16;" vertex="1" parent="1">
          <mxGeometry x="708" y="650" width="380" height="142" as="geometry" />
        </mxCell>
        <mxCell id="Vy3BLauwifYpFiC6LE89-156" value="" style="shape=tableRow;horizontal=0;startSize=0;swimlaneHead=0;swimlaneBody=0;strokeColor=inherit;top=0;left=0;bottom=0;right=0;collapsible=0;dropTarget=0;fillColor=none;points=[[0,0.5],[1,0.5]];portConstraint=eastwest;fontSize=16;" vertex="1" parent="Vy3BLauwifYpFiC6LE89-155">
          <mxGeometry width="380" height="30" as="geometry" />
        </mxCell>
        <mxCell id="Vy3BLauwifYpFiC6LE89-157" value="&lt;font style=&quot;font-size: 14px;&quot;&gt;&lt;b&gt;Time Taken&lt;/b&gt;&lt;/font&gt;" style="shape=partialRectangle;html=1;whiteSpace=wrap;connectable=0;strokeColor=inherit;overflow=hidden;fillColor=none;top=0;left=0;bottom=0;right=0;pointerEvents=1;fontSize=16;" vertex="1" parent="Vy3BLauwifYpFiC6LE89-156">
          <mxGeometry width="126" height="30" as="geometry">
            <mxRectangle width="126" height="30" as="alternateBounds" />
          </mxGeometry>
        </mxCell>
        <mxCell id="Vy3BLauwifYpFiC6LE89-158" value="&lt;font style=&quot;font-size: 14px;&quot;&gt;&lt;b&gt;&lt;font&gt;Rating&lt;/font&gt;&lt;/b&gt;&lt;/font&gt;" style="shape=partialRectangle;html=1;whiteSpace=wrap;connectable=0;strokeColor=inherit;overflow=hidden;fillColor=none;top=0;left=0;bottom=0;right=0;pointerEvents=1;fontSize=16;" vertex="1" parent="Vy3BLauwifYpFiC6LE89-156">
          <mxGeometry x="126" width="128" height="30" as="geometry">
            <mxRectangle width="128" height="30" as="alternateBounds" />
          </mxGeometry>
        </mxCell>
        <mxCell id="Vy3BLauwifYpFiC6LE89-159" value="&lt;b&gt;&lt;font style=&quot;font-size: 14px;&quot;&gt;Comment&lt;/font&gt;&lt;/b&gt;" style="shape=partialRectangle;html=1;whiteSpace=wrap;connectable=0;strokeColor=inherit;overflow=hidden;fillColor=none;top=0;left=0;bottom=0;right=0;pointerEvents=1;fontSize=16;" vertex="1" parent="Vy3BLauwifYpFiC6LE89-156">
          <mxGeometry x="254" width="126" height="30" as="geometry">
            <mxRectangle width="126" height="30" as="alternateBounds" />
          </mxGeometry>
        </mxCell>
        <mxCell id="Vy3BLauwifYpFiC6LE89-160" value="" style="shape=tableRow;horizontal=0;startSize=0;swimlaneHead=0;swimlaneBody=0;strokeColor=inherit;top=0;left=0;bottom=0;right=0;collapsible=0;dropTarget=0;fillColor=none;points=[[0,0.5],[1,0.5]];portConstraint=eastwest;fontSize=16;" vertex="1" parent="Vy3BLauwifYpFiC6LE89-155">
          <mxGeometry y="30" width="380" height="57" as="geometry" />
        </mxCell>
        <mxCell id="Vy3BLauwifYpFiC6LE89-161" value="00:00:58:12" style="shape=partialRectangle;html=1;whiteSpace=wrap;connectable=0;strokeColor=inherit;overflow=hidden;fillColor=none;top=0;left=0;bottom=0;right=0;pointerEvents=1;fontSize=16;" vertex="1" parent="Vy3BLauwifYpFiC6LE89-160">
          <mxGeometry width="126" height="57" as="geometry">
            <mxRectangle width="126" height="57" as="alternateBounds" />
          </mxGeometry>
        </mxCell>
        <mxCell id="Vy3BLauwifYpFiC6LE89-162" value="4.5" style="shape=partialRectangle;html=1;whiteSpace=wrap;connectable=0;strokeColor=inherit;overflow=hidden;fillColor=none;top=0;left=0;bottom=0;right=0;pointerEvents=1;fontSize=16;" vertex="1" parent="Vy3BLauwifYpFiC6LE89-160">
          <mxGeometry x="126" width="128" height="57" as="geometry">
            <mxRectangle width="128" height="57" as="alternateBounds" />
          </mxGeometry>
        </mxCell>
        <mxCell id="Vy3BLauwifYpFiC6LE89-163" value="&lt;div&gt;This is a log&lt;/div&gt;&lt;div&gt;for this tour&lt;/div&gt;" style="shape=partialRectangle;html=1;whiteSpace=wrap;connectable=0;strokeColor=inherit;overflow=hidden;fillColor=none;top=0;left=0;bottom=0;right=0;pointerEvents=1;fontSize=16;" vertex="1" parent="Vy3BLauwifYpFiC6LE89-160">
          <mxGeometry x="254" width="126" height="57" as="geometry">
            <mxRectangle width="126" height="57" as="alternateBounds" />
          </mxGeometry>
        </mxCell>
        <mxCell id="Vy3BLauwifYpFiC6LE89-164" value="" style="shape=tableRow;horizontal=0;startSize=0;swimlaneHead=0;swimlaneBody=0;strokeColor=inherit;top=0;left=0;bottom=0;right=0;collapsible=0;dropTarget=0;fillColor=none;points=[[0,0.5],[1,0.5]];portConstraint=eastwest;fontSize=16;" vertex="1" parent="Vy3BLauwifYpFiC6LE89-155">
          <mxGeometry y="87" width="380" height="55" as="geometry" />
        </mxCell>
        <mxCell id="Vy3BLauwifYpFiC6LE89-165" value="00:01:12:24" style="shape=partialRectangle;html=1;whiteSpace=wrap;connectable=0;strokeColor=inherit;overflow=hidden;fillColor=none;top=0;left=0;bottom=0;right=0;pointerEvents=1;fontSize=16;" vertex="1" parent="Vy3BLauwifYpFiC6LE89-164">
          <mxGeometry width="126" height="55" as="geometry">
            <mxRectangle width="126" height="55" as="alternateBounds" />
          </mxGeometry>
        </mxCell>
        <mxCell id="Vy3BLauwifYpFiC6LE89-166" value="3.0" style="shape=partialRectangle;html=1;whiteSpace=wrap;connectable=0;strokeColor=inherit;overflow=hidden;fillColor=none;top=0;left=0;bottom=0;right=0;pointerEvents=1;fontSize=16;" vertex="1" parent="Vy3BLauwifYpFiC6LE89-164">
          <mxGeometry x="126" width="128" height="55" as="geometry">
            <mxRectangle width="128" height="55" as="alternateBounds" />
          </mxGeometry>
        </mxCell>
        <mxCell id="Vy3BLauwifYpFiC6LE89-167" value="&lt;div&gt;This is another&lt;/div&gt;&lt;div&gt;log&lt;/div&gt;" style="shape=partialRectangle;html=1;whiteSpace=wrap;connectable=0;strokeColor=inherit;overflow=hidden;fillColor=none;top=0;left=0;bottom=0;right=0;pointerEvents=1;fontSize=16;" vertex="1" parent="Vy3BLauwifYpFiC6LE89-164">
          <mxGeometry x="254" width="126" height="55" as="geometry">
            <mxRectangle width="126" height="55" as="alternateBounds" />
          </mxGeometry>
        </mxCell>
        <mxCell id="Vy3BLauwifYpFiC6LE89-171" value="Log Comment..." style="html=1;shadow=0;dashed=0;shape=mxgraph.bootstrap.rrect;rSize=5;strokeColor=#CED4DA;html=1;whiteSpace=wrap;fillColor=#FFFFFF;fontColor=#7D868C;align=left;spacing=15;fontSize=14;" vertex="1" parent="1">
          <mxGeometry x="320" y="800" width="780" height="30" as="geometry" />
        </mxCell>
        <mxCell id="Vy3BLauwifYpFiC6LE89-172" value="&lt;div align=&quot;center&quot;&gt;Delete&lt;/div&gt;" style="html=1;shadow=0;dashed=0;shape=mxgraph.bootstrap.rightButton;strokeColor=#CED4DA;gradientColor=inherit;fontColor=inherit;fillColor=#E9ECEF;rSize=5;perimeter=none;whiteSpace=wrap;resizeHeight=1;fontSize=14;align=center;spacing=15;" vertex="1" parent="Vy3BLauwifYpFiC6LE89-171">
          <mxGeometry x="1" width="80" height="30" relative="1" as="geometry">
            <mxPoint x="-80" as="offset" />
          </mxGeometry>
        </mxCell>
        <mxCell id="Vy3BLauwifYpFiC6LE89-173" value="&lt;div align=&quot;center&quot;&gt;Edit&lt;/div&gt;" style="html=1;shadow=0;dashed=0;strokeColor=#CED4DA;gradientColor=inherit;fontColor=inherit;fillColor=#E9ECEF;perimeter=none;whiteSpace=wrap;resizeHeight=1;fontSize=14;align=center;spacing=15;" vertex="1" parent="Vy3BLauwifYpFiC6LE89-171">
          <mxGeometry x="1" width="80" height="30" relative="1" as="geometry">
            <mxPoint x="-160" as="offset" />
          </mxGeometry>
        </mxCell>
        <mxCell id="Vy3BLauwifYpFiC6LE89-176" value="Tour Name..." style="html=1;shadow=0;dashed=0;shape=mxgraph.bootstrap.rrect;rSize=5;strokeColor=#CED4DA;html=1;whiteSpace=wrap;fillColor=#FFFFFF;fontColor=#7D868C;align=left;spacing=15;fontSize=14;strokeWidth=1;" vertex="1" parent="Vy3BLauwifYpFiC6LE89-171">
          <mxGeometry x="-243.75" width="224.25" height="30" as="geometry" />
        </mxCell>
        <mxCell id="Vy3BLauwifYpFiC6LE89-177" value="Add" style="html=1;shadow=0;dashed=0;shape=mxgraph.bootstrap.rightButton;strokeColor=#CED4DA;gradientColor=inherit;fontColor=inherit;fillColor=#E9ECEF;rSize=5;perimeter=none;whiteSpace=wrap;resizeHeight=1;fontSize=14;align=center;spacing=15;" vertex="1" parent="Vy3BLauwifYpFiC6LE89-176">
          <mxGeometry x="1" width="80" height="30" relative="1" as="geometry">
            <mxPoint x="-80" as="offset" />
          </mxGeometry>
        </mxCell>
        <mxCell id="Vy3BLauwifYpFiC6LE89-178" value="Add" style="html=1;shadow=0;dashed=0;strokeColor=#CED4DA;gradientColor=inherit;fontColor=inherit;fillColor=#E9ECEF;perimeter=none;whiteSpace=wrap;resizeHeight=1;fontSize=14;align=center;spacing=15;" vertex="1" parent="Vy3BLauwifYpFiC6LE89-171">
          <mxGeometry x="540" width="80" height="30" as="geometry" />
        </mxCell>
      </root>
    </mxGraphModel>
  </diagram>
</mxfile>
